<svg width="278" height="278" viewBox="0 0 278 278" fill="none" xmlns="http://www.w3.org/2000/svg">
<g clip-path="url(#paint0_diamond_2081_2_clip_path)" data-figma-skip-parse="true"><g transform="matrix(0 0.138729 -0.138729 0 138.729 138.729)"><rect x="0" y="0" width="1007.21" height="1007.21" fill="url(#paint0_diamond_2081_2)" opacity="1" shape-rendering="crispEdges"/><rect x="0" y="0" width="1007.21" height="1007.21" transform="scale(1 -1)" fill="url(#paint0_diamond_2081_2)" opacity="1" shape-rendering="crispEdges"/><rect x="0" y="0" width="1007.21" height="1007.21" transform="scale(-1 1)" fill="url(#paint0_diamond_2081_2)" opacity="1" shape-rendering="crispEdges"/><rect x="0" y="0" width="1007.21" height="1007.21" transform="scale(-1)" fill="url(#paint0_diamond_2081_2)" opacity="1" shape-rendering="crispEdges"/></g></g><path d="M0 121.93C0 64.4516 0 35.7124 17.8562 17.8562C35.7124 0 64.4516 0 121.93 0H155.528C213.007 0 241.746 0 259.602 17.8562C277.458 35.7124 277.458 64.4516 277.458 121.93V155.528C277.458 213.007 277.458 241.746 259.602 259.602C241.746 277.458 213.007 277.458 155.528 277.458H121.93C64.4516 277.458 35.7124 277.458 17.8562 259.602C0 241.746 0 213.007 0 155.528V121.93Z" data-figma-gradient-fill="{&#34;type&#34;:&#34;GRADIENT_DIAMOND&#34;,&#34;stops&#34;:[{&#34;color&#34;:{&#34;r&#34;:1.0,&#34;g&#34;:0.65179979801177979,&#34;b&#34;:0.36121544241905212,&#34;a&#34;:1.0},&#34;position&#34;:0.0},{&#34;color&#34;:{&#34;r&#34;:1.0,&#34;g&#34;:0.45490196347236633,&#34;b&#34;:0.0,&#34;a&#34;:1.0},&#34;position&#34;:1.0}],&#34;stopsVar&#34;:[{&#34;color&#34;:{&#34;r&#34;:1.0,&#34;g&#34;:0.65179979801177979,&#34;b&#34;:0.36121544241905212,&#34;a&#34;:1.0},&#34;position&#34;:0.0},{&#34;color&#34;:{&#34;r&#34;:1.0,&#34;g&#34;:0.45490196347236633,&#34;b&#34;:0.0,&#34;a&#34;:1.0},&#34;position&#34;:1.0}],&#34;transform&#34;:{&#34;m00&#34;:1.6989409079332281e-14,&#34;m01&#34;:-277.45809936523438,&#34;m02&#34;:277.45809936523438,&#34;m10&#34;:277.45809936523438,&#34;m11&#34;:1.6989409079332281e-14,&#34;m12&#34;:-1.6989409079332281e-14},&#34;opacity&#34;:1.0,&#34;blendMode&#34;:&#34;NORMAL&#34;,&#34;visible&#34;:true}"/>
<path d="M64 138.736C64 184.599 95.7672 214.473 152.99 214.473C175.711 214.473 198.222 208.792 214 193.224L209.582 188.596C192.752 202.481 177.184 208.161 152.99 208.161C110.283 208.161 87.1417 181.022 87.1417 138.736C87.1417 96.4502 110.283 69.3114 152.99 69.3114C177.184 69.3114 192.752 74.9916 209.582 88.8766L214 84.2483C198.222 68.6802 175.711 63 152.99 63C95.7672 63 64 92.8738 64 138.736Z" fill="#111111"/>
<defs>
<clipPath id="paint0_diamond_2081_2_clip_path"><path d="M0 121.93C0 64.4516 0 35.7124 17.8562 17.8562C35.7124 0 64.4516 0 121.93 0H155.528C213.007 0 241.746 0 259.602 17.8562C277.458 35.7124 277.458 64.4516 277.458 121.93V155.528C277.458 213.007 277.458 241.746 259.602 259.602C241.746 277.458 213.007 277.458 155.528 277.458H121.93C64.4516 277.458 35.7124 277.458 17.8562 259.602C0 241.746 0 213.007 0 155.528V121.93Z"/></clipPath><linearGradient id="paint0_diamond_2081_2" x1="0" y1="0" x2="500" y2="500" gradientUnits="userSpaceOnUse">
<stop stop-color="#FFA65C"/>
<stop offset="1" stop-color="#FF7400"/>
</linearGradient>
</defs>
</svg>
