<svg width="406" height="76" viewBox="0 0 406 76" fill="none" xmlns="http://www.w3.org/2000/svg">
<path d="M388.63 11.388H393.44L391.1 4.576H391.048L388.63 11.388ZM389.02 0H393.206L400.148 18.564H395.91L394.506 14.43H387.564L386.108 18.564H382L389.02 0Z" fill="#FF7400"/>
<path d="M401.749 0H405.831V18.564H401.749V0Z" fill="#FF7400"/>
<path d="M0 37.9549C0 60.9387 15.92 75.9098 44.597 75.9098C55.9835 75.9098 67.2645 73.0632 75.1718 65.2614L72.9578 62.9419C64.5233 69.9003 56.7215 72.7469 44.597 72.7469C23.1947 72.7469 11.5973 59.1464 11.5973 37.9549C11.5973 16.7634 23.1947 3.16292 44.597 3.16292C56.7215 3.16292 64.5233 6.00953 72.9578 12.9679L75.1718 10.6485C67.2645 2.84662 55.9835 0 44.597 0C15.92 0 0 14.9711 0 37.9549Z" fill="#111111"/>
<path d="M79.3884 56.7214C79.3884 69.4784 90.3532 75.9097 107.117 75.9097C115.762 75.9097 121.561 73.3794 125.672 70.4273C127.676 73.1685 131.155 74.8554 134.528 74.8554V42.2774C134.528 26.5683 121.455 21.0859 108.803 21.0859C100.791 21.0859 93.8324 22.8783 88.2446 28.7824L90.0369 30.3638C94.3595 26.5683 99.9473 24.8814 106.589 24.8814C115.129 24.8814 123.985 29.4149 123.985 40.0634V41.9611C119.979 39.4308 114.708 37.5331 107.117 37.5331C90.3532 37.5331 79.3884 43.8589 79.3884 56.7214ZM91.1966 56.7214C91.1966 44.8078 98.155 41.2231 109.014 41.2231C113.97 41.2231 119.663 42.3829 123.985 45.3349V65.3667C123.985 66.2101 124.091 67.0536 124.302 67.7916C119.979 70.9545 114.18 72.2196 109.014 72.2196C98.155 72.2196 91.1966 68.635 91.1966 56.7214Z" fill="#111111"/>
<path d="M144.641 22.4199H189.484V24.7162H153.814V75.9996H144.641L144.641 22.4199Z" fill="#111111"/>
<path d="M256 47H300.843V49.2963H265.173H256V47Z" fill="#111111"/>
<path d="M189.408 56.7224C189.408 69.4794 200.373 75.9107 217.137 75.9107C225.782 75.9107 231.581 73.3803 235.692 70.4283C237.696 73.1695 241.175 74.8564 244.548 74.8564V42.2784C244.548 26.5693 231.475 21.0869 218.823 21.0869C210.811 21.0869 203.852 22.8792 198.265 28.7833L200.057 30.3648C204.38 26.5693 209.967 24.8824 216.609 24.8824C225.149 24.8824 234.005 29.4159 234.005 40.0644V41.9621C229.999 39.4318 224.728 37.534 217.137 37.534C200.373 37.534 189.408 43.8599 189.408 56.7224ZM201.217 56.7224C201.217 44.8087 208.175 41.2241 219.034 41.2241C223.99 41.2241 229.683 42.3838 234.005 45.3359V65.3676C234.005 66.2111 234.111 67.0545 234.322 67.7925C229.999 70.9555 224.2 72.2206 219.034 72.2206C208.175 72.2206 201.217 68.636 201.217 56.7224Z" fill="#111111"/>
<path d="M217.964 17.9235H223.236L235.466 1.05469H225.977L217.964 17.9235Z" fill="#111111"/>
<path d="M300.033 47.5592V74.5777H310.576V21H300.033V44.9569V47.5592Z" fill="#111111"/>
<path d="M266.543 49.3196V21H256V74.5777H266.543V51.5393V50.4295V49.3196Z" fill="#111111"/>
<path d="M319.537 56.7214C319.537 69.4784 330.502 75.9097 347.265 75.9097C355.911 75.9097 361.709 73.3794 365.821 70.4273C367.824 73.1685 371.303 74.8554 374.677 74.8554V42.2774C374.677 26.5683 361.604 21.0859 348.952 21.0859C340.939 21.0859 333.981 22.8783 328.393 28.7824L330.186 30.3638C334.508 26.5683 340.096 24.8814 346.738 24.8814C355.278 24.8814 364.134 29.4149 364.134 40.0634V41.9611C360.128 39.4308 354.856 37.5331 347.265 37.5331C330.502 37.5331 319.537 43.8589 319.537 56.7214ZM331.345 56.7214C331.345 44.8078 338.304 41.2231 349.163 41.2231C354.118 41.2231 359.811 42.3829 364.134 45.3349V65.3667C364.134 66.2101 364.24 67.0536 364.45 67.7916C360.128 70.9545 354.329 72.2196 349.163 72.2196C338.304 72.2196 331.345 68.635 331.345 56.7214Z" fill="#111111"/>
<path d="M180 45L180.48 24L189.48 24V25.1518L180 45Z" fill="#111111"/>
</svg>
